<?xml version="1.0" encoding="iso-8859-1"?>
<!-- Generator: Adobe Illustrator 19.0.0, SVG Export Plug-In . SVG Version: 6.00 Build 0)  -->
<svg version="1.1" id="Layer_1" xmlns="http://www.w3.org/2000/svg" xmlns:xlink="http://www.w3.org/1999/xlink" x="0px" y="0px"
	 viewBox="0 0 512 512" style="enable-background:new 0 0 512 512;" xml:space="preserve">
<g>
	<g>
		<path d="M495.784,91.321l-67.726-67.726c-10.473-10.474-24.399-16.243-39.21-16.243c-14.812,0-28.738,5.768-39.211,16.243
			L75.443,297.788l-20.731,85.231l-30.443,30.444l12.066,12.066L0,461.865l72.244,42.782l21.604-21.604l12.067,12.067l30.443-30.444
			l85.232-20.73l274.195-274.194C517.405,148.122,517.405,112.942,495.784,91.321z M66.963,462.738l-12.967-7.678l5.935-5.935
			l10.322,10.323L66.963,462.738z M119.381,434.454l-13.465,13.465l-34.457-34.456l13.465-13.465l14.82-60.931l80.567,80.567
			L119.381,434.454z M472.189,146.149L213.103,405.236l-98.959-98.959L373.231,47.19c4.171-4.171,9.717-6.468,15.617-6.468
			c5.9,0,11.445,2.297,15.616,6.468l67.726,67.726C480.8,123.526,480.8,137.538,472.189,146.149z"/>
	</g>
</g>
<g>
	<g>
		<path d="M340.686,121.18L204.369,257.497l57.512,57.514l136.318-136.318L340.686,121.18z M251.559,257.497l89.127-89.127
			l10.323,10.322l-89.128,89.128L251.559,257.497z"/>
	</g>
</g>
<g>
</g>
<g>
</g>
<g>
</g>
<g>
</g>
<g>
</g>
<g>
</g>
<g>
</g>
<g>
</g>
<g>
</g>
<g>
</g>
<g>
</g>
<g>
</g>
<g>
</g>
<g>
</g>
<g>
</g>
</svg>
