<?xml version="1.0" encoding="iso-8859-1"?>
<!-- Generator: Adobe Illustrator 19.0.0, SVG Export Plug-In . SVG Version: 6.00 Build 0)  -->
<svg version="1.1" id="Layer_1" xmlns="http://www.w3.org/2000/svg" xmlns:xlink="http://www.w3.org/1999/xlink" x="0px" y="0px"
	 viewBox="0 0 512 512" style="enable-background:new 0 0 512 512;" xml:space="preserve">
<g>
	<g>
		<path d="M500.335,228.713l-70.859-70.857c-7.267-7.266-16.929-11.268-27.204-11.268s-19.938,4.001-27.205,11.268
			c-7.267,7.268-11.269,16.929-11.269,27.205c0,10.278,4.002,19.939,11.269,27.205l5.179,5.179h-85.773v-86.089l5.179,5.179
			c7.267,7.266,16.929,11.268,27.205,11.268s19.938-4.002,27.205-11.27c7.266-7.268,11.268-16.929,11.268-27.203
			c0-10.277-4.002-19.938-11.268-27.205l-70.859-70.858C275.936,4.001,266.275,0,255.999,0s-19.937,4.001-27.204,11.267
			l-70.857,70.858c-7.266,7.267-11.268,16.929-11.268,27.205c0,10.277,4.001,19.938,11.268,27.205
			c7.267,7.266,16.929,11.268,27.204,11.268c10.277,0,19.938-4.002,27.205-11.269l5.178-5.178v86.089h-85.772l5.179-5.179
			c7.266-7.267,11.268-16.929,11.268-27.204c0-10.277-4.003-19.938-11.27-27.205c-7.267-7.267-16.928-11.268-27.203-11.268
			c-10.277,0-19.937,4.001-27.204,11.268l-70.859,70.858c-7.266,7.267-11.267,16.928-11.267,27.204s4.001,19.937,11.268,27.205
			l70.858,70.857c7.267,7.266,16.929,11.268,27.205,11.268c10.277,0,19.938-4.001,27.205-11.268
			c7.266-7.267,11.268-16.929,11.268-27.204c0-10.277-4.002-19.938-11.269-27.205l-5.178-5.178h85.771v86.25l-5.179-5.179
			c-7.267-7.266-16.929-11.268-27.204-11.268c-10.277,0-19.938,4.003-27.205,11.27c-7.267,7.267-11.268,16.928-11.268,27.203
			c0,10.277,4.001,19.937,11.268,27.204l70.858,70.859c7.268,7.266,16.929,11.267,27.204,11.267s19.937-4.001,27.205-11.273
			l70.858-70.858c7.266-7.267,11.268-16.928,11.268-27.204c0-10.276-4.002-19.937-11.269-27.205
			c-7.267-7.266-16.929-11.268-27.204-11.268c-10.277,0-19.939,4.002-27.205,11.269l-5.178,5.179l-0.001-86.25h85.773l-5.179,5.179
			c-7.267,7.268-11.269,16.929-11.269,27.205c0,10.278,4.003,19.939,11.27,27.205c7.266,7.266,16.928,11.268,27.204,11.268
			c10.276,0,19.937-4.001,27.205-11.268l70.858-70.858c7.266-7.267,11.268-16.929,11.268-27.204S507.601,235.98,500.335,228.713z
			 M485.91,268.7l-70.857,70.857c-3.415,3.414-7.954,5.294-12.782,5.294s-9.366-1.88-12.781-5.294
			c-3.414-3.414-5.294-7.952-5.294-12.781c0-4.827,1.88-9.367,5.294-12.781l22.59-22.59c2.916-2.917,3.789-7.304,2.211-11.115
			c-1.579-3.81-5.297-6.296-9.423-6.296H284.274c-2.705,0-5.298,1.075-7.212,2.987c-1.912,1.912-2.987,4.507-2.987,7.212
			l0.001,121.073c0,4.126,2.486,7.844,6.297,9.423c3.808,1.579,8.198,0.706,11.114-2.211l22.589-22.59
			c3.413-3.414,7.952-5.293,12.781-5.293c4.827,0,9.366,1.881,12.781,5.293c3.413,3.415,5.293,7.954,5.293,12.782
			c0,4.828-1.88,9.367-5.293,12.781l-70.857,70.857c-3.414,3.415-7.954,5.294-12.782,5.294s-9.367-1.88-12.781-5.293l-70.857-70.858
			c-3.415-3.414-5.294-7.952-5.294-12.781c0-4.827,1.88-9.367,5.293-12.781c3.415-3.414,7.953-5.294,12.782-5.294
			c4.827,0,9.367,1.88,12.78,5.294l22.59,22.59c2.917,2.918,7.304,3.788,11.115,2.211c3.81-1.579,6.296-5.299,6.296-9.423V284.195
			c0-5.633-4.566-10.199-10.199-10.199H107.129c-4.126,0-7.844,2.485-9.423,6.296c-1.579,3.811-0.706,8.198,2.211,11.115
			l22.59,22.589c3.415,3.414,5.294,7.953,5.294,12.782c0,4.827-1.88,9.367-5.293,12.781c-3.415,3.414-7.953,5.293-12.782,5.293
			s-9.367-1.88-12.782-5.294l-70.857-70.856c-3.414-3.414-5.293-7.953-5.293-12.782s1.88-9.367,5.292-12.781l70.858-70.857
			c3.414-3.415,7.952-5.294,12.781-5.294c4.827,0,9.367,1.88,12.781,5.293c3.414,3.415,5.294,7.953,5.294,12.782
			c0,4.827-1.88,9.367-5.293,12.781l-22.59,22.59c-2.917,2.917-3.79,7.305-2.211,11.115c1.579,3.81,5.299,6.296,9.423,6.296h120.594
			c5.633,0,10.199-4.566,10.199-10.199V106.733c0-4.126-2.484-7.844-6.296-9.423c-3.81-1.578-8.197-0.706-11.115,2.211
			l-22.589,22.59c-3.414,3.415-7.953,5.294-12.782,5.294c-4.827,0-9.367-1.88-12.781-5.293s-5.293-7.953-5.293-12.782
			s1.88-9.367,5.294-12.781l70.856-70.857c3.415-3.415,7.954-5.294,12.782-5.294s9.367,1.88,12.781,5.293l70.858,70.856
			c3.413,3.415,5.293,7.953,5.293,12.782c0,4.827-1.88,9.366-5.293,12.781c-3.414,3.414-7.953,5.294-12.781,5.294
			c-4.828,0-9.367-1.88-12.782-5.293l-22.589-22.59c-2.917-2.918-7.305-3.791-11.115-2.211c-3.81,1.579-6.296,5.297-6.296,9.423
			v120.911c0,5.633,4.567,10.199,10.199,10.199H404.87c4.126,0,7.844-2.484,9.423-6.296c1.578-3.811,0.705-8.198-2.211-11.115
			l-22.591-22.59c-3.413-3.414-5.293-7.952-5.293-12.781c0-4.827,1.88-9.367,5.293-12.781c3.414-3.414,7.954-5.293,12.782-5.293
			s9.366,1.881,12.781,5.294l70.858,70.857c3.413,3.415,5.293,7.953,5.293,12.782S489.324,265.286,485.91,268.7z"/>
	</g>
</g>
<g>
	<g>
		<path d="M84.634,287.83l-1.13-1.13c-3.984-3.983-10.442-3.983-14.425,0c-3.983,3.984-3.983,10.442,0,14.425l1.13,1.13
			c1.991,1.992,4.602,2.987,7.212,2.987c2.61,0,5.221-0.995,7.213-2.987C88.617,298.271,88.617,291.813,84.634,287.83z"/>
	</g>
</g>
<g>
	<g>
		<path d="M63.951,267.149l-18.686-18.686c-3.983-3.984-10.44-3.983-14.424,0c-3.984,3.983-3.983,10.441,0,14.424l18.686,18.686
			c1.992,1.992,4.602,2.987,7.212,2.987c2.61,0,5.221-0.996,7.212-2.987C67.935,277.59,67.934,271.132,63.951,267.149z"/>
	</g>
</g>
<g>
</g>
<g>
</g>
<g>
</g>
<g>
</g>
<g>
</g>
<g>
</g>
<g>
</g>
<g>
</g>
<g>
</g>
<g>
</g>
<g>
</g>
<g>
</g>
<g>
</g>
<g>
</g>
<g>
</g>
</svg>
